#!OML:ASF E:\Steps\Project 1\Capture day 1\Session 2\Subject.ASF
:FULLY-SPECIFIED
:DEGREES
238
root -1.52366 17.9683 20.8073 -154.394 1.143 179.634
lowerback -26.1592 -3.51745 -5.92592
upperback -0.610864 -2.46165 0.232136
thorax 14.2963 -1.35775 2.79056
lowerneck -3.02982 -6.83657 -1.38761
upperneck 13.1255 -9.25471 4.49766
head 4.71222 -4.17771 1.14713
rclavicle -1.07344e-014 -1.66979e-014
rhumerus -40.5435 -15.428 -78.295
rradius 35.7147
rwrist -3.99136
rhand -7.50767 -53.353
rfingers 7.12502
rthumb 18.3825 -82.5044
lclavicle -1.07344e-014 -1.66979e-014
lhumerus -29.9227 3.62316 80.901
lradius 25.7185
lwrist -3.12191
lhand -22.0703 -12.6109
lfingers 7.12502
lthumb 4.34091 17.3246
rfemur -26.0091 7.17613 20.4405
rtibia 10.7473
rfoot -18.9448 -4.07515
rtoes -27.0207
lfemur -27.0641 -8.97938 -21.7615
ltibia 14.4067
lfoot -10.4011 -1.62013
ltoes -28.665
239
root -1.52471 17.9666 20.7999 -154.373 1.33929 179.595
lowerback -26.2288 -3.509 -5.99714
upperback -0.604011 -2.42029 0.21679
thorax 14.3417 -1.344 2.82787
lowerneck -2.88647 -6.83441 -1.37807
upperneck 13.0933 -9.24407 4.47791
head 4.67654 -4.17491 1.14608
rclavicle 1.05356e-014 -1.98785e-015
rhumerus -40.5596 -15.3577 -78.2841
rradius 35.741
rwrist -4.02961
rhand -7.41866 -53.2828
rfingers 7.12502
rthumb 18.4681 -82.4261
lclavicle 1.05356e-014 -1.98785e-015
lhumerus -30.1044 3.52986 80.8697
lradius 25.9438
lwrist -2.86797
lhand -21.5413 -12.7648
lfingers 7.12502
lthumb 4.85166 17.1597
rfemur -26.0376 7.2732 20.3382
rtibia 10.7676
rfoot -18.8643 -3.91633
rtoes -26.4934
lfemur -27.073 -9.05311 -21.8268
ltibia 14.455
lfoot -10.4934 -1.42055
ltoes -28.3989
240
root -1.52449 17.9653 20.7966 -154.392 1.45872 179.571
lowerback -26.1445 -3.53158 -6.07584
upperback -0.612794 -2.43521 0.224969
thorax 14.2903 -1.35603 2.87885
lowerneck -3.08174 -6.88136 -1.25422
upperneck 13.4754 -9.28553 4.1878
head 4.80855 -4.18926 1.02393
rclavicle -2.48481e-014 -1.90833e-014
rhumerus -40.5085 -15.3313 -78.2509
rradius 35.6322
rwrist -3.96993
rhand -7.51399 -52.9357
rfingers 7.12502
rthumb 18.3764 -82.0877
lclavicle -2.48481e-014 -1.90833e-014
lhumerus -30.3108 3.41907 80.8867
lradius 26.2172
lwrist -2.58742
lhand -21.2723 -12.6619
lfingers 7.12502
lthumb 5.11143 17.2564
rfemur -26.1258 7.46135 20.2393
rtibia 10.9868
rfoot -19.0471 -3.97212
rtoes -25.8708
lfemur -27.1148 -9.12349 -21.855
ltibia 14.6118
lfoot -10.6121 -1.26618
ltoes -28.1912
241
root -1.52419 17.9649 20.7937 -154.358 1.48097 179.604
lowerback -26.0813 -3.57334 -6.10923
upperback -0.631099 -2.49462 0.281539
thorax 14.244 -1.3868 2.94251
lowerneck -3.346 -6.94798 -1.17185
upperneck 13.816 -9.35965 3.9439
head 4.94454 -4.22156 0.917904
rclavicle 2.54444e-014 5.1684e-015
rhumerus -40.4619 -15.3676 -78.1503
rradius 35.5321
rwrist -3.89109
rhand -7.55535 -52.8011
rfingers 7.12502
rthumb 18.3366 -81.9568
lclavicle 2.54444e-014 5.1684e-015
lhumerus -30.3949 3.40548 80.9443
lradius 26.3258
lwrist -2.57562
lhand -21.4648 -12.5845
lfingers 7.12502
lthumb 4.9256 17.3383
rfemur -26.2117 7.5045 20.2753
rtibia 11.1046
rfoot -19.1992 -4.04413
rtoes -25.7832
lfemur -27.2502 -9.19811 -21.7874
ltibia 14.8205
lfoot -10.7636 -1.15686
ltoes -28.2866
242
root -1.52357 17.9638 20.7902 -154.222 1.52983 179.654
lowerback -26.2555 -3.58855 -6.10978
upperback -0.592634 -2.50648 0.312361
thorax 14.3894 -1.39788 2.96882
lowerneck -3.14305 -6.87698 -1.36982
upperneck 13.5603 -9.28073 4.24575
head 4.85293 -4.18594 1.05627
rclavicle -2.34566e-014 -3.18055e-015
rhumerus -40.3118 -15.4135 -78.1592
rradius 35.4975
rwrist -3.86156
rhand -7.61807 -52.8099
rfingers 7.12502
rthumb 18.2763 -81.9714
lclavicle -2.34566e-014 -3.18055e-015
lhumerus -30.3028 3.21475 80.9972
lradius 26.3752
lwrist -2.45646
lhand -21.5244 -12.4494
lfingers 7.12502
lthumb 4.86799 17.4747
rfemur -26.3705 7.48217 20.3415
rtibia 11.1495
rfoot -19.2056 -4.01005
rtoes -26.3341
lfemur -27.4701 -9.23389 -21.6995
ltibia 15.0135
lfoot -10.9499 -1.10408
ltoes -28.1769
